<?xml version="1.0" standalone="no"?>
<!DOCTYPE svg PUBLIC "-//W3C//DTD SVG 20010904//EN"
 "http://www.w3.org/TR/2001/REC-SVG-20010904/DTD/svg10.dtd">
<svg version="1.0" xmlns="http://www.w3.org/2000/svg"
 width="2400.000000pt" height="2400.000000pt" viewBox="0 0 2400.000000 2400.000000"
 preserveAspectRatio="xMidYMid meet">
<metadata>
Created by potrace 1.14, written by Peter Selinger 2001-2017
</metadata>
<g transform="translate(0.000000,2400.000000) scale(0.100000,-0.100000)"
fill="#000000" stroke="none">
<path d="M11930 21111 c0 -29 -1 -30 -65 -36 -63 -7 -65 -8 -65 -36 0 -26 -3
-29 -35 -29 -33 0 -35 -2 -35 -35 0 -32 -3 -35 -29 -35 -28 0 -29 -2 -36 -65
-6 -64 -7 -65 -36 -65 l-29 0 0 -3525 0 -3525 -30 0 c-28 0 -30 3 -30 35 0 33
-2 35 -35 35 -33 0 -35 2 -35 35 0 32 -2 35 -29 35 -26 0 -30 4 -33 33 -3 28
-7 32 -35 35 -29 3 -33 7 -33 33 0 27 -3 29 -35 29 -33 0 -35 2 -35 35 0 32
-2 35 -29 35 -26 0 -30 4 -33 33 -3 28 -7 32 -35 35 -30 3 -31 5 -38 63 -7 57
-8 59 -36 59 -26 0 -29 3 -29 35 0 33 -2 35 -35 35 -32 0 -35 2 -35 29 0 26
-4 30 -32 33 -29 3 -33 7 -36 36 -3 28 -7 32 -33 32 -27 0 -29 3 -29 35 0 33
-2 35 -35 35 -32 0 -35 2 -35 29 0 26 -4 30 -32 33 -29 3 -33 7 -36 36 -3 28
-7 32 -33 32 -27 0 -29 3 -29 35 0 33 -2 35 -35 35 -32 0 -35 2 -35 29 0 26
-4 30 -32 33 -29 3 -33 7 -36 36 -3 28 -7 32 -33 32 -27 0 -29 3 -29 35 0 33
-2 35 -35 35 -32 0 -35 2 -35 30 0 27 -3 30 -30 30 -28 0 -30 3 -30 35 0 33
-2 35 -35 35 -33 0 -35 2 -35 35 0 33 -2 35 -35 35 -32 0 -35 2 -35 30 0 27
-3 30 -30 30 -28 0 -30 3 -30 35 0 33 -2 35 -35 35 -33 0 -35 2 -35 35 0 33
-2 35 -35 35 -32 0 -35 2 -35 30 0 27 -3 30 -30 30 -28 0 -30 3 -30 35 0 33
-2 35 -35 35 -33 0 -35 2 -35 35 0 32 -2 35 -30 35 -27 0 -30 3 -30 30 0 28
-3 30 -35 30 -33 0 -35 2 -35 35 0 33 -2 35 -35 35 -33 0 -35 2 -35 35 0 32
-2 35 -30 35 -27 0 -30 3 -30 30 0 28 -3 30 -35 30 -33 0 -35 2 -35 35 0 33
-2 35 -35 35 -33 0 -35 2 -35 35 0 32 -2 35 -30 35 -27 0 -30 3 -30 30 0 28
-3 30 -35 30 -33 0 -35 2 -35 35 0 33 -2 35 -35 35 -33 0 -35 2 -35 35 0 32
-2 35 -30 35 -27 0 -30 3 -30 30 0 28 -3 30 -35 30 -33 0 -35 2 -35 35 0 32
-2 35 -29 35 -26 0 -30 4 -33 33 -3 28 -7 32 -35 35 -29 3 -33 7 -33 33 0 27
-3 29 -35 29 -33 0 -35 2 -35 35 0 32 -2 35 -30 35 -27 0 -30 3 -30 30 0 28
-3 30 -35 30 -33 0 -35 2 -35 35 0 33 -2 35 -35 35 -33 0 -35 2 -35 35 0 32
-2 35 -30 35 -27 0 -30 3 -30 30 0 28 -3 30 -35 30 -33 0 -35 2 -35 35 0 33
-2 35 -35 35 -33 0 -35 2 -35 35 0 32 -2 35 -30 35 -27 0 -30 3 -30 30 0 28
-3 30 -35 30 -33 0 -35 2 -35 35 0 33 -2 35 -35 35 -33 0 -35 2 -35 35 0 32
-2 35 -30 35 -27 0 -30 3 -30 30 0 28 -3 30 -35 30 -33 0 -35 2 -35 35 0 33
-2 35 -35 35 -33 0 -35 2 -35 35 0 32 -2 35 -30 35 -27 0 -30 3 -30 30 0 28
-3 30 -35 30 -33 0 -35 2 -35 35 0 32 -2 35 -29 35 -26 0 -30 4 -33 33 -3 28
-7 32 -35 35 -29 3 -33 7 -33 32 0 25 -4 29 -32 32 -29 3 -33 7 -36 36 -3 28
-7 32 -32 32 -25 0 -29 4 -32 33 -3 28 -7 32 -35 35 -29 3 -33 7 -33 33 0 25
-4 29 -29 29 -26 0 -30 4 -33 33 -3 28 -7 32 -35 35 -28 3 -32 7 -35 35 -3 28
-7 32 -35 35 -29 3 -33 7 -33 33 0 25 -4 29 -29 29 -26 0 -30 4 -33 33 -3 28
-7 32 -35 35 -28 3 -32 7 -35 35 -3 28 -7 32 -35 35 -29 3 -33 7 -33 33 0 25
-4 29 -29 29 -26 0 -30 4 -33 33 -3 28 -7 32 -35 35 -30 3 -31 5 -38 63 -7 57
-8 59 -36 59 -26 0 -29 3 -29 35 0 33 -2 35 -35 35 -33 0 -35 2 -35 34 0 32
-3 35 -32 38 -27 2 -34 8 -36 30 -3 21 -9 27 -30 30 -22 2 -28 9 -30 35 -3 28
-7 32 -35 35 -28 3 -32 7 -35 36 -3 29 -6 32 -38 32 -31 0 -34 2 -34 30 0 27
-3 30 -30 30 -28 0 -30 3 -30 34 0 32 -3 35 -32 38 -29 3 -33 7 -36 35 -3 28
-7 32 -35 35 -26 2 -33 8 -35 30 -3 21 -9 27 -30 30 -22 2 -28 9 -30 36 -3 29
-6 32 -38 32 -32 0 -34 2 -34 35 0 33 -2 35 -35 35 -32 0 -35 2 -35 30 0 27
-3 30 -30 30 -28 0 -30 3 -30 34 0 32 -3 35 -32 38 -29 3 -33 7 -36 36 -3 28
-7 32 -33 32 -26 0 -29 3 -29 30 0 28 -3 30 -35 30 -33 0 -35 2 -35 35 0 33
-2 35 -35 35 -32 0 -35 2 -35 30 0 27 -3 30 -30 30 -28 0 -30 3 -30 34 0 32
-3 35 -32 38 -29 3 -33 7 -36 35 -3 28 -7 32 -35 35 -28 3 -32 7 -35 36 -3 28
-7 32 -33 32 -25 0 -29 4 -29 29 0 26 -4 30 -32 33 -29 3 -33 7 -36 35 -3 28
-7 32 -35 35 -26 2 -33 8 -35 30 -3 21 -9 27 -30 30 -22 2 -28 9 -30 35 -3 28
-7 32 -35 35 -28 3 -32 7 -35 36 -3 28 -7 32 -33 32 -25 0 -29 4 -29 29 0 26
-4 30 -32 33 -29 3 -33 7 -36 35 -3 28 -7 32 -35 35 -28 3 -32 7 -35 36 -3 28
-7 32 -33 32 -27 0 -29 3 -29 35 0 33 -2 35 -35 35 -32 0 -35 2 -35 30 0 27
-3 30 -30 30 -28 0 -30 3 -30 35 0 33 -2 35 -35 35 -33 0 -35 2 -35 35 0 33
-2 35 -35 35 -32 0 -35 2 -35 30 0 27 -3 30 -30 30 -28 0 -30 3 -30 35 0 33
-2 35 -35 35 -33 0 -35 2 -35 35 0 33 -2 35 -35 35 -32 0 -35 2 -35 30 0 27
-3 30 -30 30 -28 0 -30 3 -30 35 0 33 -2 35 -35 35 -32 0 -35 2 -35 29 0 29
-1 30 -65 36 -63 7 -65 8 -65 36 l0 29 -235 0 -235 0 0 -29 c0 -26 -4 -30 -32
-33 -29 -3 -33 -7 -36 -35 -3 -28 -7 -32 -35 -35 -26 -2 -33 -8 -35 -30 -3
-21 -9 -27 -30 -30 -23 -3 -27 -8 -30 -40 -3 -34 -6 -38 -31 -38 l-28 0 -7
-111 c-4 -60 -4 -164 0 -230 l7 -119 27 0 c27 0 28 -2 35 -65 6 -64 7 -65 36
-65 27 0 29 -3 29 -35 0 -33 2 -35 35 -35 32 0 35 -2 35 -30 0 -27 3 -30 30
-30 28 0 30 -3 30 -35 0 -33 2 -35 35 -35 33 0 35 -2 35 -35 0 -33 2 -35 35
-35 32 0 35 -2 35 -30 0 -27 3 -30 30 -30 28 0 30 -3 30 -35 0 -33 2 -35 35
-35 33 0 35 -2 35 -35 0 -33 2 -35 35 -35 32 0 35 -2 35 -30 0 -27 3 -30 30
-30 28 0 30 -3 30 -35 0 -33 2 -35 35 -35 33 0 35 -2 35 -35 0 -32 2 -35 30
-35 27 0 30 -3 30 -30 0 -28 3 -30 35 -30 33 0 35 -2 35 -35 0 -33 2 -35 35
-35 33 0 35 -2 35 -35 0 -32 2 -35 30 -35 27 0 30 -3 30 -30 0 -28 3 -30 35
-30 33 0 35 -2 35 -35 0 -33 2 -35 35 -35 33 0 35 -2 35 -35 0 -32 2 -35 30
-35 27 0 30 -3 30 -30 0 -28 3 -30 35 -30 33 0 35 -2 35 -35 0 -33 2 -35 35
-35 33 0 35 -2 35 -35 0 -32 2 -35 30 -35 27 0 30 -3 30 -30 0 -28 3 -30 35
-30 33 0 35 -2 35 -35 0 -32 2 -35 29 -35 26 0 30 -4 33 -32 3 -29 7 -33 36
-36 28 -3 32 -7 32 -33 0 -27 3 -29 35 -29 33 0 35 -2 35 -35 0 -32 2 -35 29
-35 26 0 30 -4 33 -32 3 -29 7 -33 36 -36 28 -3 32 -7 32 -33 0 -27 3 -29 35
-29 33 0 35 -2 35 -35 0 -32 2 -35 30 -35 27 0 30 -3 30 -30 0 -28 3 -30 35
-30 33 0 35 -2 35 -35 0 -33 2 -35 35 -35 33 0 35 -2 35 -35 0 -32 2 -35 30
-35 27 0 30 -3 30 -30 0 -28 3 -30 35 -30 33 0 35 -2 35 -35 0 -33 2 -35 35
-35 33 0 35 -2 35 -35 0 -32 2 -35 30 -35 27 0 30 -3 30 -30 0 -28 3 -30 35
-30 33 0 35 -2 35 -35 0 -33 2 -35 35 -35 33 0 35 -2 35 -35 0 -32 2 -35 30
-35 27 0 30 -3 30 -30 0 -28 3 -30 35 -30 33 0 35 -2 35 -35 0 -32 2 -35 29
-35 26 0 30 -4 33 -32 3 -29 7 -33 36 -36 28 -3 32 -7 32 -32 0 -25 4 -29 33
-32 28 -3 32 -7 35 -35 3 -29 7 -33 32 -33 25 0 29 -4 32 -32 3 -29 7 -33 36
-36 28 -3 32 -7 32 -33 0 -25 4 -29 29 -29 26 0 30 -4 33 -32 3 -29 7 -33 35
-36 28 -3 32 -7 35 -35 3 -28 7 -32 36 -35 28 -3 32 -7 32 -33 0 -25 4 -29 29
-29 26 0 30 -4 33 -32 3 -29 7 -33 35 -36 28 -3 32 -7 35 -35 3 -28 7 -32 36
-35 l32 -3 0 -59 0 -59 33 -3 c28 -3 32 -7 35 -35 3 -30 6 -33 38 -33 32 0 34
-2 34 -35 0 -32 2 -35 30 -35 27 0 30 -3 30 -29 0 -26 4 -30 33 -33 28 -3 32
-7 35 -35 3 -28 7 -32 35 -35 26 -2 33 -8 35 -30 3 -21 9 -27 30 -30 22 -2 28
-9 30 -35 3 -30 6 -33 38 -33 32 0 34 -2 34 -34 0 -32 3 -35 33 -38 26 -2 33
-8 35 -30 3 -21 9 -27 30 -30 22 -2 28 -9 30 -35 3 -28 7 -32 35 -35 28 -3 32
-7 35 -35 3 -28 7 -32 35 -35 26 -2 33 -8 35 -30 3 -21 9 -27 30 -30 22 -2 28
-9 30 -35 3 -30 6 -33 38 -33 32 0 34 -2 34 -34 0 -32 3 -35 33 -38 26 -2 33
-8 35 -30 3 -21 9 -27 30 -30 22 -2 28 -9 30 -35 3 -28 7 -32 35 -35 28 -3 32
-7 35 -35 3 -29 7 -33 33 -33 26 0 29 -3 29 -30 0 -28 3 -30 35 -30 33 0 35
-2 35 -34 0 -32 3 -35 33 -38 28 -3 32 -7 35 -35 3 -29 7 -33 33 -33 25 0 29
-4 29 -29 0 -26 4 -30 33 -33 28 -3 32 -7 35 -35 3 -28 7 -32 35 -35 28 -3 32
-7 35 -35 3 -29 7 -33 33 -33 25 0 29 -4 29 -29 0 -26 4 -30 33 -33 28 -3 32
-7 35 -35 3 -28 7 -32 35 -35 28 -3 32 -7 35 -35 3 -29 7 -33 33 -33 25 0 29
-4 29 -29 0 -26 4 -30 33 -33 28 -3 32 -7 35 -35 3 -29 7 -33 33 -33 25 0 29
-4 29 -29 0 -26 4 -30 33 -33 28 -3 32 -7 35 -35 3 -28 7 -32 35 -35 28 -3 32
-7 35 -35 3 -29 7 -33 33 -33 27 0 29 -3 29 -35 0 -33 2 -35 35 -35 32 0 35
-2 35 -30 0 -27 3 -30 30 -30 28 0 30 -3 30 -35 0 -33 2 -35 35 -35 33 0 35
-2 35 -35 0 -33 2 -35 35 -35 32 0 35 -2 35 -30 0 -27 3 -30 30 -30 28 0 30
-3 30 -35 0 -33 2 -35 35 -35 33 0 35 -2 35 -35 0 -33 2 -35 35 -35 32 0 35
-2 35 -30 0 -27 3 -30 29 -30 26 0 30 -4 33 -32 3 -29 7 -33 36 -36 29 -3 32
-6 32 -38 0 -32 2 -34 35 -34 32 0 35 -2 35 -30 0 -27 3 -30 30 -30 28 0 30
-3 30 -35 0 -33 2 -35 35 -35 33 0 35 -2 35 -35 0 -32 2 -35 30 -35 27 0 30
-3 30 -30 0 -28 3 -30 35 -30 33 0 35 -2 35 -35 0 -33 2 -35 35 -35 33 0 35
-2 35 -35 0 -32 2 -35 30 -35 27 0 30 -3 30 -30 0 -28 3 -30 35 -30 33 0 35
-2 35 -35 0 -33 2 -35 35 -35 32 0 35 -2 35 -30 0 -27 3 -30 30 -30 28 0 30
-3 30 -35 0 -33 2 -35 35 -35 33 0 35 -2 35 -35 0 -33 2 -35 35 -35 32 0 35
-2 35 -30 0 -27 3 -30 30 -30 28 0 30 -3 30 -35 0 -33 2 -35 35 -35 33 0 35
-2 35 -35 0 -33 2 -35 35 -35 32 0 35 -2 35 -30 0 -27 3 -30 30 -30 28 0 30
-3 30 -35 0 -33 2 -35 35 -35 33 0 35 -2 35 -35 0 -33 2 -35 35 -35 32 0 35
-2 35 -30 0 -27 3 -30 30 -30 28 0 30 -3 30 -35 0 -33 2 -35 35 -35 33 0 35
-2 35 -35 0 -33 2 -35 35 -35 32 0 35 -2 35 -30 0 -27 3 -30 30 -30 l30 0 0
-65 0 -65 -2697 0 c-1484 1 -3165 -2 -3736 -5 -572 -3 -1061 -3 -1087 1 -46 6
-49 8 -52 38 -3 27 -7 31 -35 34 -29 3 -33 7 -33 33 0 27 -3 29 -35 29 -33 0
-35 2 -35 35 0 32 -2 35 -30 35 -27 0 -30 3 -30 30 0 28 -3 30 -35 30 -33 0
-35 2 -35 35 0 33 -2 35 -35 35 -33 0 -35 2 -35 35 0 32 -2 35 -30 35 -27 0
-30 3 -30 30 0 28 -3 30 -35 30 -33 0 -35 2 -35 35 0 33 -2 35 -35 35 -32 0
-35 2 -35 30 0 27 -3 30 -30 30 -28 0 -30 3 -30 35 0 33 -2 35 -35 35 -33 0
-35 2 -35 35 0 33 -2 35 -35 35 -32 0 -35 2 -35 30 0 27 -3 30 -30 30 -28 0
-30 3 -30 35 0 33 -2 35 -35 35 -33 0 -35 2 -35 35 0 33 -2 35 -35 35 -32 0
-35 2 -35 30 0 27 -3 30 -30 30 -28 0 -30 3 -30 35 0 33 -2 35 -35 35 -33 0
-35 2 -35 35 0 33 -2 35 -35 35 -32 0 -35 2 -35 30 0 27 -3 30 -30 30 -28 0
-30 3 -30 35 0 33 -2 35 -35 35 -33 0 -35 2 -35 35 0 33 -2 35 -35 35 -32 0
-35 2 -35 30 0 27 -3 30 -30 30 -28 0 -30 3 -30 35 0 33 -2 35 -35 35 -32 0
-35 2 -35 29 0 26 -4 30 -33 33 -28 3 -32 7 -35 36 -3 28 -7 32 -33 32 -27 0
-29 3 -29 35 0 33 -2 35 -35 35 -32 0 -35 2 -35 30 0 27 -3 30 -30 30 -28 0
-30 3 -30 35 0 33 -2 35 -35 35 -33 0 -35 2 -35 35 0 33 -2 35 -35 35 -32 0
-35 2 -35 30 0 27 -3 30 -30 30 -28 0 -30 3 -30 35 0 33 -2 35 -35 35 -33 0
-35 2 -35 35 0 33 -2 35 -35 35 -32 0 -35 2 -35 30 0 27 -3 30 -30 30 -28 0
-30 3 -30 35 0 33 -2 35 -34 35 -32 0 -35 3 -38 33 -3 28 -7 32 -35 35 -29 3
-33 7 -33 33 0 26 -3 29 -30 29 -28 0 -30 3 -30 35 0 33 -2 35 -35 35 -33 0
-35 2 -35 35 0 24 -5 35 -15 35 -13 0 -15 -92 -15 -765 0 -673 2 -765 15 -765
10 0 15 -11 15 -35 0 -33 2 -35 35 -35 32 0 35 -2 35 -29 0 -26 4 -30 32 -33
29 -3 33 -7 36 -35 3 -29 7 -33 33 -33 27 0 29 -3 29 -35 0 -33 2 -35 35 -35
32 0 35 -2 35 -29 0 -26 4 -30 33 -33 28 -3 32 -7 35 -35 3 -29 7 -33 33 -33
27 0 29 -3 29 -35 0 -33 2 -35 35 -35 32 0 35 -2 35 -29 0 -26 4 -30 33 -33
28 -3 32 -7 35 -35 3 -29 7 -33 33 -33 25 0 29 -4 29 -29 0 -26 4 -30 32 -33
29 -3 33 -7 36 -35 3 -28 7 -32 35 -35 28 -3 32 -7 35 -35 3 -29 7 -33 33 -33
25 0 29 -4 29 -29 0 -26 4 -30 32 -33 29 -3 33 -7 36 -35 3 -28 7 -32 35 -35
28 -3 32 -7 35 -35 3 -29 7 -33 33 -33 25 0 29 -4 29 -29 0 -26 4 -30 33 -33
28 -3 32 -7 35 -35 3 -30 5 -31 63 -38 57 -7 59 -8 59 -36 0 -26 3 -29 35 -29
33 0 35 -2 35 -35 0 -33 2 -35 35 -35 33 0 35 -2 35 -35 0 -32 2 -35 30 -35
27 0 30 -3 30 -30 0 -28 3 -30 35 -30 33 0 35 -2 35 -35 0 -33 2 -35 35 -35
33 0 35 -2 35 -35 0 -32 2 -35 30 -35 27 0 30 -3 30 -30 0 -28 3 -30 35 -30
33 0 35 -2 35 -35 0 -32 2 -35 29 -35 26 0 30 -4 33 -32 3 -29 7 -33 35 -36
29 -3 33 -7 33 -33 0 -27 3 -29 35 -29 33 0 35 -2 35 -35 0 -33 2 -35 35 -35
32 0 35 -2 35 -30 0 -27 3 -30 30 -30 28 0 30 -3 30 -35 0 -33 2 -35 35 -35
33 0 35 -2 35 -35 0 -32 2 -35 29 -35 26 0 30 -4 33 -32 3 -29 7 -33 36 -36
28 -3 32 -7 32 -33 0 -27 3 -29 35 -29 l35 0 0 -65 0 -65 35 0 c32 0 35 -2 35
-29 0 -26 4 -30 33 -33 28 -3 32 -7 35 -35 3 -29 7 -33 33 -33 27 0 29 -3 29
-35 0 -33 2 -35 35 -35 32 0 35 -2 35 -29 0 -26 4 -30 33 -33 28 -3 32 -7 35
-35 3 -29 7 -33 33 -33 27 0 29 -3 29 -35 0 -33 2 -35 35 -35 32 0 35 -2 35
-29 0 -26 4 -30 33 -33 28 -3 32 -7 35 -35 3 -29 7 -33 33 -33 27 0 29 -3 29
-35 0 -33 2 -35 35 -35 32 0 35 -2 35 -30 0 -27 3 -30 30 -30 28 0 30 -3 30
-35 0 -33 2 -35 35 -35 33 0 35 -2 35 -35 0 -33 2 -35 35 -35 32 0 35 -2 35
-30 0 -27 3 -30 30 -30 28 0 30 -3 30 -35 0 -33 2 -35 35 -35 33 0 35 -2 35
-35 0 -33 2 -35 35 -35 32 0 35 -2 35 -30 0 -27 3 -30 30 -30 28 0 30 -3 30
-35 0 -33 2 -35 35 -35 33 0 35 -2 35 -35 0 -33 2 -35 35 -35 32 0 35 -2 35
-30 0 -27 3 -30 30 -30 28 0 30 -3 30 -35 0 -33 2 -35 35 -35 33 0 35 -2 35
-35 0 -32 2 -35 30 -35 27 0 30 -3 30 -30 0 -28 3 -30 35 -30 33 0 35 -2 35
-35 0 -33 2 -35 35 -35 32 0 35 -2 35 -29 0 -26 4 -30 33 -33 28 -3 32 -7 35
-36 3 -28 7 -32 33 -32 27 0 29 -3 29 -35 0 -33 2 -35 35 -35 32 0 35 -2 35
-30 0 -27 3 -30 30 -30 28 0 30 -3 30 -35 0 -33 2 -35 35 -35 33 0 35 -2 35
-35 0 -33 2 -35 35 -35 32 0 35 -2 35 -30 0 -27 3 -30 30 -30 28 0 30 -3 30
-35 0 -33 2 -35 35 -35 33 0 35 -2 35 -35 0 -33 2 -35 35 -35 32 0 35 -2 35
-30 0 -27 3 -30 30 -30 28 0 30 -3 30 -35 0 -33 2 -35 35 -35 32 0 35 -2 35
-29 0 -26 4 -30 33 -33 28 -3 32 -7 35 -35 3 -29 7 -33 33 -33 27 0 29 -3 29
-35 0 -33 2 -35 35 -35 32 0 35 -2 35 -30 0 -27 3 -30 30 -30 28 0 30 -3 30
-35 0 -33 2 -35 35 -35 33 0 35 -2 35 -35 0 -33 2 -35 35 -35 32 0 35 -2 35
-30 0 -27 3 -30 30 -30 28 0 30 -3 30 -35 0 -33 2 -35 35 -35 33 0 35 -2 35
-35 0 -33 2 -35 35 -35 32 0 35 -2 35 -30 0 -27 3 -30 30 -30 28 0 30 -3 30
-35 0 -33 2 -35 35 -35 33 0 35 -2 35 -35 0 -33 2 -35 35 -35 32 0 35 -2 35
-30 0 -27 3 -30 30 -30 28 0 30 -3 30 -35 0 -33 2 -35 35 -35 33 0 35 -2 35
-35 0 -33 2 -35 35 -35 32 0 35 -2 35 -30 0 -27 3 -30 30 -30 28 0 30 -3 30
-35 0 -33 2 -35 35 -35 33 0 35 -2 35 -35 0 -32 2 -35 30 -35 27 0 30 -3 30
-30 0 -28 3 -30 35 -30 33 0 35 -2 35 -35 0 -33 2 -35 35 -35 33 0 35 -2 35
-35 0 -32 2 -35 30 -35 27 0 30 -3 30 -30 0 -28 3 -30 35 -30 33 0 35 -2 35
-35 0 -33 2 -35 35 -35 33 0 35 -2 35 -35 0 -32 2 -35 30 -35 27 0 30 -3 30
-30 0 -28 3 -30 35 -30 33 0 35 -2 35 -35 0 -33 2 -35 35 -35 33 0 35 -2 35
-35 0 -32 2 -35 30 -35 27 0 30 -3 30 -30 0 -28 3 -30 35 -30 33 0 35 -2 35
-35 0 -32 2 -35 29 -35 26 0 30 -4 33 -32 3 -29 7 -33 36 -36 28 -3 32 -7 32
-33 0 -27 3 -29 35 -29 33 0 35 -2 35 -35 0 -32 2 -35 29 -35 26 0 30 -4 33
-32 3 -29 7 -33 36 -36 28 -3 32 -7 32 -33 0 -27 3 -29 35 -29 33 0 35 -2 35
-35 0 -32 2 -35 29 -35 26 0 30 -4 33 -33 3 -28 7 -32 36 -35 28 -3 32 -7 32
-33 0 -27 3 -29 35 -29 33 0 35 -2 35 -35 0 -32 2 -35 30 -35 27 0 30 -3 30
-30 0 -28 3 -30 35 -30 33 0 35 -2 35 -34 0 -32 3 -35 33 -38 28 -3 32 -7 35
-35 3 -29 7 -33 33 -33 26 0 29 -3 29 -30 0 -28 3 -30 35 -30 33 0 35 -2 35
-35 0 -33 2 -35 35 -35 33 0 35 -2 35 -35 0 -32 2 -35 30 -35 27 0 30 -3 30
-30 0 -28 3 -30 35 -30 33 0 35 -2 35 -35 0 -32 2 -35 29 -35 26 0 30 -4 33
-33 3 -28 7 -32 36 -35 28 -3 32 -7 32 -33 0 -27 3 -29 35 -29 33 0 35 -2 35
-35 0 -32 2 -35 29 -35 26 0 30 -4 33 -32 3 -29 7 -33 36 -36 28 -3 32 -7 32
-32 0 -25 4 -29 33 -32 28 -3 32 -7 35 -35 3 -29 7 -33 32 -33 25 0 29 -4 32
-32 3 -29 7 -33 36 -36 28 -3 32 -7 32 -32 0 -25 4 -29 33 -32 28 -3 32 -7 35
-35 3 -29 7 -33 32 -33 25 0 29 -4 32 -32 3 -29 7 -33 36 -36 28 -3 32 -7 32
-33 0 -25 4 -29 29 -29 26 0 30 -4 33 -33 3 -28 7 -32 35 -35 28 -3 32 -7 35
-35 3 -28 7 -32 36 -35 28 -3 32 -7 32 -33 0 -25 4 -29 29 -29 26 0 30 -4 33
-32 3 -29 7 -33 35 -36 28 -3 32 -7 35 -35 3 -28 7 -32 36 -35 28 -3 32 -7 32
-33 0 -26 3 -29 30 -29 28 0 30 -3 30 -35 0 -33 2 -35 34 -35 32 0 35 -3 38
-32 3 -29 7 -33 36 -36 28 -3 32 -7 32 -33 0 -26 3 -29 30 -29 28 0 30 -3 30
-35 0 -33 2 -35 35 -35 33 0 35 -2 35 -35 0 -32 2 -35 29 -35 25 0 30 -4 33
-27 2 -23 8 -29 35 -31 28 -3 32 -7 35 -35 3 -28 7 -32 36 -35 28 -3 32 -7 32
-33 0 -25 4 -29 29 -29 26 0 30 -4 33 -32 3 -29 7 -33 36 -36 29 -3 32 -6 32
-38 0 -32 2 -34 35 -34 32 0 35 -2 35 -30 0 -27 3 -30 30 -30 28 0 30 -3 30
-35 0 -33 2 -35 34 -35 l34 0 7 -65 c6 -64 7 -65 36 -65 25 0 29 -4 29 -29 0
-26 4 -30 33 -33 28 -3 32 -7 35 -35 3 -28 7 -32 35 -35 28 -3 32 -7 35 -35 3
-29 7 -33 33 -33 25 0 29 -4 29 -29 0 -26 4 -30 33 -33 28 -3 32 -7 35 -35 3
-28 7 -32 35 -35 28 -3 32 -7 35 -35 3 -29 7 -33 33 -33 25 0 29 -4 29 -29 0
-26 4 -30 33 -33 28 -3 32 -7 35 -35 3 -28 7 -32 35 -35 26 -2 33 -8 35 -30 3
-21 9 -27 30 -30 22 -2 28 -9 30 -35 3 -28 7 -32 35 -35 28 -3 32 -7 35 -35 3
-28 7 -32 35 -35 26 -2 33 -8 35 -30 3 -21 9 -27 30 -30 22 -2 28 -9 30 -35 3
-28 7 -32 35 -35 28 -3 32 -7 35 -35 l3 -33 65 0 64 0 0 -35 0 -35 135 0 135
0 0 -30 0 -30 65 0 65 0 0 30 0 29 98 3 97 3 3 33 c3 29 6 32 38 32 31 0 34 2
34 30 0 27 3 30 30 30 28 0 30 3 30 35 0 33 2 35 35 35 33 0 35 2 35 35 0 32
2 35 30 35 l30 0 0 3590 0 3590 -30 0 -30 0 0 165 0 165 30 0 c27 0 30 -3 30
-30 0 -28 3 -30 35 -30 33 0 35 -2 35 -35 0 -33 2 -35 35 -35 32 0 35 -2 35
-29 0 -26 4 -30 33 -33 28 -3 32 -7 35 -35 3 -29 7 -33 33 -33 27 0 29 -3 29
-35 0 -33 2 -35 35 -35 32 0 35 -2 35 -30 0 -27 3 -30 30 -30 28 0 30 -3 30
-35 0 -33 2 -35 35 -35 33 0 35 -2 35 -35 0 -33 2 -35 35 -35 32 0 35 -2 35
-30 0 -27 3 -30 30 -30 28 0 30 -3 30 -35 0 -33 2 -35 35 -35 33 0 35 -2 35
-35 0 -33 2 -35 35 -35 32 0 35 -2 35 -30 0 -27 3 -30 30 -30 28 0 30 -3 30
-35 0 -33 2 -35 35 -35 33 0 35 -2 35 -35 0 -33 2 -35 35 -35 32 0 35 -2 35
-30 0 -27 3 -30 30 -30 28 0 30 -3 30 -35 0 -33 2 -35 35 -35 33 0 35 -2 35
-35 0 -32 2 -35 30 -35 27 0 30 -3 30 -30 0 -28 3 -30 35 -30 33 0 35 -2 35
-35 0 -33 2 -35 35 -35 33 0 35 -2 35 -35 0 -32 2 -35 30 -35 27 0 30 -3 30
-30 0 -28 3 -30 35 -30 33 0 35 -2 35 -34 0 -32 3 -35 33 -38 28 -3 32 -7 35
-35 3 -29 7 -33 33 -33 25 0 29 -4 29 -29 0 -26 4 -30 33 -33 28 -3 32 -7 35
-35 3 -30 6 -33 38 -33 31 0 34 -2 34 -30 0 -27 3 -30 30 -30 28 0 30 -3 30
-34 0 -32 3 -35 33 -38 28 -3 32 -7 35 -35 3 -29 7 -33 32 -33 25 0 29 -4 32
-32 3 -29 7 -33 36 -36 28 -3 32 -7 32 -32 0 -25 4 -29 33 -32 28 -3 32 -7 35
-35 3 -29 7 -33 32 -33 25 0 29 -4 32 -32 3 -29 7 -33 36 -36 28 -3 32 -7 32
-32 0 -25 4 -29 33 -32 28 -3 32 -7 35 -35 3 -29 7 -33 32 -33 25 0 29 -4 32
-32 3 -29 7 -33 36 -36 28 -3 32 -7 32 -32 0 -25 4 -29 33 -32 28 -3 32 -7 35
-35 3 -29 7 -33 33 -33 27 0 29 -3 29 -35 0 -33 2 -35 35 -35 32 0 35 -2 35
-30 0 -27 3 -30 30 -30 28 0 30 -3 30 -35 0 -33 2 -35 35 -35 33 0 35 -2 35
-35 0 -33 2 -35 35 -35 32 0 35 -2 35 -30 0 -27 3 -30 29 -30 26 0 30 -4 33
-32 3 -29 7 -33 36 -36 29 -3 32 -6 32 -38 0 -32 2 -34 35 -34 32 0 35 -2 35
-30 0 -27 3 -30 30 -30 28 0 30 -3 30 -35 0 -33 2 -35 35 -35 32 0 35 -2 35
-29 0 -26 4 -30 33 -33 28 -3 32 -7 35 -35 3 -29 7 -33 33 -33 27 0 29 -3 29
-35 0 -33 2 -35 35 -35 32 0 35 -2 35 -30 0 -27 3 -30 30 -30 28 0 30 -3 30
-35 0 -33 2 -35 34 -35 32 0 35 -3 38 -33 3 -28 7 -32 36 -35 28 -3 32 -7 32
-33 0 -26 3 -29 30 -29 28 0 30 -3 30 -35 0 -33 2 -35 35 -35 33 0 35 -2 35
-35 0 -33 2 -35 35 -35 32 0 35 -2 35 -30 0 -27 3 -30 30 -30 28 0 30 -3 30
-35 0 -33 2 -35 35 -35 33 0 35 -2 35 -35 0 -33 2 -35 35 -35 32 0 35 -2 35
-30 0 -27 3 -30 30 -30 28 0 30 -3 30 -35 0 -33 2 -35 35 -35 33 0 35 -2 35
-35 0 -33 2 -35 35 -35 32 0 35 -2 35 -30 0 -27 3 -30 30 -30 28 0 30 -3 30
-35 0 -33 2 -35 35 -35 32 0 35 -2 35 -29 0 -26 4 -30 33 -33 28 -3 32 -7 35
-35 3 -29 7 -33 33 -33 27 0 29 -3 29 -35 0 -33 2 -35 35 -35 32 0 35 -2 35
-30 0 -27 3 -30 30 -30 28 0 30 -3 30 -35 0 -33 2 -35 35 -35 33 0 35 -2 35
-35 0 -33 2 -35 35 -35 33 0 35 -2 35 -35 0 -32 2 -35 30 -35 27 0 30 -3 30
-30 0 -28 3 -30 35 -30 33 0 35 -2 35 -35 0 -32 2 -35 29 -35 26 0 30 -4 33
-32 3 -29 7 -33 36 -36 28 -3 32 -7 32 -33 0 -27 3 -29 35 -29 33 0 35 -2 35
-35 0 -32 2 -35 29 -35 26 0 30 -4 33 -32 3 -29 7 -33 36 -36 28 -3 32 -7 32
-33 0 -27 3 -29 35 -29 l35 0 0 -65 0 -65 35 0 c32 0 35 -2 35 -29 0 -26 4
-30 33 -33 28 -3 32 -7 35 -35 3 -29 7 -33 33 -33 27 0 29 -3 29 -35 0 -33 2
-35 35 -35 32 0 35 -2 35 -29 0 -26 4 -30 33 -33 28 -3 32 -7 35 -35 3 -29 7
-33 33 -33 27 0 29 -3 29 -35 0 -33 2 -35 35 -35 32 0 35 -2 35 -29 0 -26 4
-30 33 -33 28 -3 32 -7 35 -35 3 -29 7 -33 33 -33 27 0 29 -3 29 -35 0 -33 2
-35 35 -35 32 0 35 -2 35 -29 0 -26 4 -30 33 -33 28 -3 32 -7 35 -36 3 -28 7
-32 33 -32 25 0 29 -4 29 -29 0 -26 4 -30 33 -33 28 -3 32 -7 35 -35 3 -28 7
-32 35 -35 28 -3 32 -7 35 -36 3 -28 7 -32 33 -32 25 0 29 -4 29 -29 0 -26 4
-30 33 -33 28 -3 32 -7 35 -35 3 -29 7 -33 33 -33 27 0 29 -3 29 -35 0 -33 2
-35 35 -35 32 0 35 -2 35 -29 0 -26 4 -30 33 -33 28 -3 32 -7 35 -35 3 -29 7
-33 33 -33 27 0 29 -3 29 -35 0 -33 2 -35 35 -35 32 0 35 -2 35 -29 0 -26 4
-30 33 -33 28 -3 32 -7 35 -35 3 -29 7 -33 33 -33 27 0 29 -3 29 -35 0 -33 2
-35 35 -35 32 0 35 -2 35 -29 0 -26 4 -30 33 -33 28 -3 32 -7 35 -35 3 -29 7
-33 33 -33 27 0 29 -3 29 -35 0 -33 2 -35 35 -35 32 0 35 -2 35 -29 0 -26 4
-30 33 -33 28 -3 32 -7 35 -35 3 -29 7 -33 33 -33 27 0 29 -3 29 -35 0 -33 2
-35 35 -35 33 0 35 -2 35 -35 0 -32 2 -35 30 -35 27 0 30 -3 30 -30 0 -28 3
-30 35 -30 33 0 35 -2 35 -35 0 -32 2 -35 30 -35 27 0 30 -3 30 -30 0 -28 3
-30 35 -30 33 0 35 -2 35 -35 0 -33 2 -35 35 -35 33 0 35 -2 35 -35 0 -33 2
-35 35 -35 32 0 35 -3 35 -29 0 -28 2 -29 60 -36 58 -7 60 -8 60 -36 l0 -29
235 0 235 0 0 30 c0 28 3 30 35 30 33 0 35 2 35 35 0 33 2 35 35 35 32 0 35 2
35 30 0 27 3 30 30 30 28 0 30 2 30 40 0 37 2 40 29 40 26 0 29 3 35 46 3 26
6 129 6 230 l0 184 -35 0 -35 0 0 64 0 65 -32 3 c-29 3 -33 7 -36 35 -3 29 -7
33 -32 33 -25 0 -29 4 -32 32 -3 29 -7 33 -35 36 -29 3 -33 7 -33 32 0 25 -4
29 -32 32 -29 3 -33 7 -36 36 -3 28 -7 32 -33 32 -25 0 -29 4 -29 29 0 26 -4
30 -32 33 -29 3 -33 7 -36 36 -3 28 -7 32 -33 32 -27 0 -29 3 -29 35 0 33 -2
35 -35 35 -33 0 -35 2 -35 35 0 33 -2 35 -35 35 -32 0 -35 2 -35 30 0 27 -3
30 -30 30 -28 0 -30 3 -30 35 0 33 -2 35 -35 35 -32 0 -35 2 -35 29 0 26 -4
30 -32 33 -29 3 -33 7 -36 36 -3 28 -7 32 -33 32 -27 0 -29 3 -29 35 0 33 -2
35 -35 35 -32 0 -35 2 -35 29 0 26 -4 30 -32 33 -29 3 -33 7 -36 36 -3 28 -7
32 -32 32 -25 0 -29 4 -32 33 -3 28 -7 32 -35 35 -29 3 -33 7 -33 33 0 26 -3
29 -30 29 -28 0 -30 3 -30 35 0 33 -2 35 -35 35 -33 0 -35 2 -35 35 0 33 -2
35 -35 35 -32 0 -35 2 -35 30 0 27 -3 30 -29 30 -26 0 -30 4 -33 33 -3 28 -7
32 -35 35 -28 3 -32 7 -35 35 -3 28 -7 32 -35 35 -29 3 -33 7 -33 33 0 26 -3
29 -30 29 -28 0 -30 3 -30 35 0 33 -2 35 -35 35 -33 0 -35 2 -35 35 0 33 -2
35 -35 35 -32 0 -35 2 -35 30 0 27 -3 30 -30 30 -28 0 -30 3 -30 35 0 33 -2
35 -35 35 -33 0 -35 2 -35 35 0 33 -2 35 -35 35 -32 0 -35 2 -35 30 0 27 -3
30 -30 30 -28 0 -30 3 -30 35 0 33 -2 35 -35 35 -32 0 -35 2 -35 29 0 26 -4
30 -32 33 -29 3 -33 7 -36 36 -3 28 -7 32 -33 32 -27 0 -29 3 -29 35 0 33 -2
35 -35 35 -32 0 -35 2 -35 30 0 27 -3 30 -30 30 -28 0 -30 3 -30 35 0 33 -2
35 -35 35 -33 0 -35 2 -35 35 0 33 -2 35 -35 35 -33 0 -35 2 -35 35 0 32 -2
35 -30 35 -27 0 -30 3 -30 30 0 28 -3 30 -35 30 -33 0 -35 2 -35 35 0 32 -2
35 -29 35 -26 0 -30 4 -33 33 -3 28 -7 32 -35 35 -29 3 -33 7 -33 33 0 27 -3
29 -35 29 -33 0 -35 2 -35 35 0 32 -2 35 -30 35 -27 0 -30 3 -30 30 0 28 -3
30 -35 30 -33 0 -35 2 -35 35 0 33 -2 35 -35 35 -33 0 -35 2 -35 35 0 32 -2
35 -29 35 -26 0 -30 4 -33 32 -3 29 -7 33 -35 36 -30 3 -31 5 -38 63 -7 57 -8
59 -36 59 -26 0 -29 3 -29 35 0 33 -2 35 -35 35 -32 0 -35 2 -35 29 0 26 -4
30 -32 33 -29 3 -33 7 -36 36 -3 28 -7 32 -33 32 -27 0 -29 3 -29 35 0 33 -2
35 -35 35 -32 0 -35 2 -35 29 0 26 -4 30 -32 33 -29 3 -33 7 -36 36 -3 28 -7
32 -33 32 -27 0 -29 3 -29 35 0 33 -2 35 -35 35 -32 0 -35 2 -35 29 0 26 -4
30 -32 33 -29 3 -33 7 -36 36 -3 28 -7 32 -33 32 -25 0 -29 4 -29 29 0 26 -4
30 -32 33 -29 3 -33 7 -36 35 -3 28 -7 32 -35 35 -28 3 -32 7 -35 36 -3 28 -7
32 -33 32 -25 0 -29 4 -29 29 0 26 -4 30 -32 33 -29 3 -33 7 -36 35 -3 29 -7
33 -33 33 -27 0 -29 3 -29 35 0 33 -2 35 -35 35 -32 0 -35 2 -35 29 0 26 -4
30 -32 33 -29 3 -33 7 -36 36 -3 28 -7 32 -33 32 -27 0 -29 3 -29 35 0 33 -2
35 -35 35 -32 0 -35 2 -35 29 0 26 -4 30 -32 33 -29 3 -33 7 -36 36 -3 28 -7
32 -33 32 -27 0 -29 3 -29 35 0 33 -2 35 -35 35 -32 0 -35 2 -35 29 0 26 -4
30 -32 33 -29 3 -33 7 -36 36 -3 28 -7 32 -33 32 -27 0 -29 3 -29 35 0 33 -2
35 -35 35 -32 0 -35 2 -35 30 0 27 -3 30 -30 30 -28 0 -30 3 -30 35 0 33 -2
35 -35 35 -33 0 -35 2 -35 35 0 33 -2 35 -35 35 -32 0 -35 2 -35 30 0 27 -3
30 -30 30 -28 0 -30 3 -30 35 0 33 -2 35 -35 35 -33 0 -35 2 -35 35 0 32 -2
35 -30 35 -27 0 -30 3 -30 30 0 28 -3 30 -35 30 -33 0 -35 2 -35 35 0 33 -2
35 -35 35 -33 0 -35 2 -35 35 0 32 -2 35 -30 35 -27 0 -30 3 -30 30 0 28 -3
30 -35 30 -33 0 -35 2 -35 35 0 33 -2 35 -35 35 -33 0 -35 2 -35 35 0 32 -2
35 -30 35 -27 0 -30 3 -30 30 0 28 -3 30 -35 30 -33 0 -35 2 -35 35 0 33 -2
35 -35 35 -33 0 -35 2 -35 35 0 32 -2 35 -30 35 -27 0 -30 3 -30 30 0 28 -3
30 -35 30 -33 0 -35 2 -35 35 0 32 -2 35 -29 35 -26 0 -30 4 -33 33 -3 28 -7
32 -35 35 -29 3 -33 7 -33 33 0 27 -3 29 -35 29 -33 0 -35 2 -35 35 0 32 -2
35 -29 35 -26 0 -30 4 -33 33 -3 28 -7 32 -35 35 -29 3 -33 7 -33 33 0 27 -3
29 -35 29 -33 0 -35 2 -35 35 0 32 -2 35 -29 35 -26 0 -30 4 -33 33 -3 28 -7
32 -35 35 -29 3 -33 7 -33 33 0 27 -3 29 -35 29 -33 0 -35 2 -35 35 0 32 -2
35 -29 35 -26 0 -30 4 -33 33 -3 28 -7 32 -35 35 -29 3 -33 7 -33 33 0 27 -3
29 -35 29 -33 0 -35 2 -35 35 0 32 -2 35 -30 35 -27 0 -30 3 -30 30 0 28 -3
30 -35 30 -33 0 -35 2 -35 35 0 33 -2 35 -35 35 -33 0 -35 2 -35 35 0 32 -2
35 -30 35 -27 0 -30 3 -30 30 0 28 -3 30 -35 30 -33 0 -35 2 -35 35 0 32 -2
35 -29 35 -26 0 -30 4 -33 33 -3 28 -7 32 -35 35 -29 3 -33 7 -33 33 0 27 -3
29 -35 29 -33 0 -35 2 -35 35 0 32 -2 35 -29 35 -26 0 -30 4 -33 33 -3 28 -7
32 -35 35 -29 3 -33 7 -33 33 0 27 -3 29 -35 29 -33 0 -35 2 -35 35 0 33 -2
35 -35 35 -32 0 -35 2 -35 30 0 27 -3 30 -30 30 -28 0 -30 3 -30 35 0 33 -2
35 -35 35 -33 0 -35 2 -35 35 0 32 -2 35 -29 35 -26 0 -30 4 -33 33 -3 28 -7
32 -35 35 -29 3 -33 7 -33 33 l0 29 2493 2 2492 3 3 26 3 26 292 6 c161 4 608
7 995 7 l702 0 0 -29 c0 -29 1 -30 64 -36 64 -7 65 -8 68 -39 3 -27 7 -31 36
-34 28 -3 32 -7 32 -33 0 -25 4 -29 29 -29 26 0 30 -4 33 -32 3 -29 7 -33 36
-36 29 -3 32 -6 32 -38 0 -32 2 -34 35 -34 32 0 35 -2 35 -30 0 -27 3 -30 29
-30 26 0 30 -4 33 -32 3 -29 7 -33 35 -36 28 -3 32 -7 35 -35 3 -28 7 -32 36
-35 28 -3 32 -7 32 -33 0 -25 4 -29 29 -29 26 0 30 -4 33 -32 3 -29 7 -33 35
-36 28 -3 32 -7 35 -35 3 -28 7 -32 36 -35 28 -3 32 -7 32 -33 0 -25 4 -29 29
-29 26 0 30 -4 33 -32 3 -29 7 -33 36 -36 28 -3 32 -7 32 -32 0 -25 4 -29 33
-32 28 -3 32 -7 35 -35 3 -29 7 -33 33 -33 27 0 29 -3 29 -35 0 -33 2 -35 35
-35 33 0 35 -2 35 -35 0 -32 2 -35 30 -35 27 0 30 -3 30 -30 0 -28 3 -30 34
-30 32 0 35 -3 38 -32 3 -29 7 -33 36 -36 29 -3 32 -6 32 -38 0 -31 2 -34 30
-34 27 0 30 -3 30 -30 0 -28 3 -30 35 -30 33 0 35 -2 35 -35 0 -32 2 -35 29
-35 26 0 30 -4 33 -32 3 -29 7 -33 35 -36 26 -3 32 -8 35 -30 2 -22 9 -28 34
-30 31 -3 32 -4 39 -68 6 -63 7 -64 36 -64 25 0 29 -4 29 -29 0 -26 4 -30 33
-33 28 -3 32 -7 35 -35 3 -29 7 -33 33 -33 27 0 29 -3 29 -35 0 -33 2 -35 35
-35 32 0 35 -2 35 -29 0 -26 4 -30 33 -33 28 -3 32 -7 35 -36 3 -28 7 -32 33
-32 27 0 29 -3 29 -35 0 -33 2 -35 35 -35 32 0 35 -2 35 -29 0 -26 4 -30 33
-33 28 -3 32 -7 35 -36 3 -28 7 -32 32 -32 25 0 29 -4 32 -33 3 -28 7 -32 36
-35 28 -3 32 -7 32 -32 0 -25 4 -29 33 -32 28 -3 32 -7 35 -35 3 -29 7 -33 33
-33 27 0 29 -3 29 -35 0 -24 5 -35 15 -35 13 0 15 92 15 765 0 673 -2 765 -15
765 -10 0 -15 11 -15 35 0 33 -2 35 -35 35 -32 0 -35 2 -35 30 0 27 -3 30 -30
30 -28 0 -30 3 -30 35 0 33 -2 35 -35 35 -32 0 -35 2 -35 29 0 26 -4 30 -32
33 -29 3 -33 7 -36 36 -3 28 -7 32 -33 32 -27 0 -29 3 -29 35 0 33 -2 35 -35
35 -32 0 -35 2 -35 29 0 26 -4 30 -32 33 -29 3 -33 7 -36 36 -3 28 -7 32 -33
32 -27 0 -29 3 -29 35 0 33 -2 35 -35 35 -32 0 -35 2 -35 29 0 26 -4 30 -32
33 -29 3 -33 7 -36 36 -3 28 -7 32 -33 32 -27 0 -29 3 -29 35 0 33 -2 35 -35
35 -32 0 -35 2 -35 29 0 26 -4 30 -32 33 -29 3 -33 7 -36 36 -3 28 -7 32 -32
32 -25 0 -29 4 -32 33 -3 28 -7 32 -35 35 -29 3 -33 7 -33 32 0 25 -4 29 -32
32 -29 3 -33 7 -36 36 -3 28 -7 32 -33 32 -27 0 -29 3 -29 35 0 33 -2 35 -35
35 -32 0 -35 2 -35 30 0 27 -3 30 -30 30 -28 0 -30 3 -30 35 0 33 -2 35 -35
35 -33 0 -35 2 -35 35 0 33 -2 35 -35 35 -32 0 -35 2 -35 30 0 27 -3 30 -30
30 -28 0 -30 3 -30 35 0 33 -2 35 -35 35 -33 0 -35 2 -35 35 0 33 -2 35 -35
35 -32 0 -35 2 -35 30 0 27 -3 30 -30 30 -28 0 -30 3 -30 35 0 33 -2 35 -35
35 -33 0 -35 2 -35 35 0 33 -2 35 -35 35 -32 0 -35 2 -35 30 0 27 -3 30 -30
30 -28 0 -30 3 -30 35 0 33 -2 35 -35 35 -32 0 -35 2 -35 30 0 27 -3 30 -30
30 -28 0 -30 3 -30 35 0 33 -2 35 -35 35 -33 0 -35 2 -35 35 0 33 -2 35 -35
35 -33 0 -35 2 -35 35 0 32 -2 35 -30 35 -27 0 -30 3 -30 30 0 28 -3 30 -35
30 -33 0 -35 2 -35 35 0 33 -2 35 -35 35 -32 0 -35 2 -35 30 0 27 -3 30 -30
30 -28 0 -30 3 -30 35 0 33 -2 35 -35 35 -33 0 -35 2 -35 35 0 33 -2 35 -35
35 -32 0 -35 2 -35 30 0 27 -3 30 -30 30 -28 0 -30 3 -30 35 0 33 -2 35 -35
35 -33 0 -35 2 -35 35 0 32 -2 35 -29 35 -26 0 -30 4 -33 33 -3 28 -7 32 -35
35 -29 3 -33 7 -33 33 0 27 -3 29 -35 29 -33 0 -35 2 -35 35 0 32 -2 35 -29
35 -26 0 -30 4 -33 33 -3 28 -7 32 -35 35 -29 3 -33 7 -33 33 0 25 -4 29 -29
29 -26 0 -30 4 -33 33 -3 28 -7 32 -35 35 -29 3 -33 7 -33 33 0 27 -3 29 -35
29 -33 0 -35 2 -35 35 0 32 -2 35 -29 35 -26 0 -30 4 -33 33 -3 28 -7 32 -35
35 -29 3 -33 7 -33 33 0 27 -3 29 -35 29 -33 0 -35 2 -35 35 0 32 -2 35 -29
35 -26 0 -30 4 -33 33 -3 28 -7 32 -35 35 -29 3 -33 7 -33 33 0 27 -3 29 -35
29 -33 0 -35 2 -35 35 0 32 -2 35 -29 35 -26 0 -30 4 -33 33 -3 28 -7 32 -35
35 -29 3 -33 7 -33 33 0 27 -3 29 -35 29 -33 0 -35 2 -35 35 0 32 -2 35 -30
35 -27 0 -30 3 -30 30 0 28 -3 30 -35 30 -33 0 -35 2 -35 35 0 33 -2 35 -35
35 -33 0 -35 2 -35 35 0 32 -2 35 -29 35 -26 0 -30 4 -33 33 -3 28 -7 32 -35
35 -29 3 -33 7 -33 33 0 25 -4 29 -29 29 -26 0 -30 4 -33 33 -3 28 -7 32 -35
35 -28 3 -32 7 -35 35 -3 28 -7 32 -35 35 -29 3 -33 7 -33 33 0 25 -4 29 -29
29 -26 0 -30 4 -33 33 -3 28 -7 32 -35 35 -28 3 -32 7 -35 35 -3 28 -7 32 -35
35 -29 3 -33 7 -33 33 0 25 -4 29 -29 29 -26 0 -30 4 -33 33 -3 28 -7 32 -35
35 -30 3 -31 5 -38 63 -7 57 -8 59 -36 59 -26 0 -29 3 -29 35 0 33 -2 35 -35
35 -33 0 -35 2 -35 35 0 33 -2 35 -35 35 -32 0 -35 2 -35 30 0 27 -3 30 -30
30 -28 0 -30 3 -30 35 0 33 -2 35 -35 35 -33 0 -35 2 -35 35 0 33 -2 35 -35
35 -32 0 -35 2 -35 30 0 27 -3 30 -30 30 -28 0 -30 3 -30 35 0 33 -2 35 -35
35 -33 0 -35 2 -35 35 0 33 -2 35 -35 35 -32 0 -35 2 -35 30 0 27 -3 30 -30
30 -28 0 -30 3 -30 35 0 33 -2 35 -35 35 -33 0 -35 2 -35 35 0 32 -2 35 -30
35 -27 0 -30 3 -30 30 0 28 -3 30 -35 30 -33 0 -35 2 -35 35 0 33 -2 35 -35
35 -33 0 -35 2 -35 35 0 32 -2 35 -30 35 -27 0 -30 3 -30 30 0 28 -3 30 -35
30 -33 0 -35 2 -35 35 0 33 -2 35 -35 35 -33 0 -35 2 -35 35 0 32 -2 35 -30
35 -27 0 -30 3 -30 30 0 28 -3 30 -35 30 -33 0 -35 2 -35 35 0 33 -2 35 -35
35 -33 0 -35 2 -35 35 0 32 -2 35 -30 35 -27 0 -30 3 -30 30 0 28 -3 30 -35
30 -33 0 -35 2 -35 35 0 32 -2 35 -30 35 -27 0 -30 3 -30 29 0 26 -4 30 -32
33 -29 3 -33 7 -36 36 -3 29 -6 32 -38 32 -32 0 -34 2 -34 35 0 32 -2 35 -30
35 -27 0 -30 3 -30 29 0 26 -4 30 -32 33 -29 3 -33 7 -36 36 -3 29 -6 32 -38
32 -32 0 -34 2 -34 35 0 32 -2 35 -30 35 -27 0 -30 3 -30 30 0 28 -3 30 -35
30 -33 0 -35 2 -35 35 0 33 -2 35 -35 35 -33 0 -35 2 -35 35 0 32 -2 35 -30
35 -27 0 -30 3 -30 29 0 26 -4 30 -32 33 -29 3 -33 7 -36 36 -3 28 -7 32 -32
32 -25 0 -29 4 -32 33 -3 28 -7 32 -35 35 -29 3 -33 7 -33 33 0 27 -3 29 -35
29 -33 0 -35 2 -35 35 0 32 -2 35 -29 35 -26 0 -30 4 -33 33 -3 28 -7 32 -35
35 -29 3 -33 7 -33 32 0 25 -4 29 -32 32 -29 3 -33 7 -36 36 -3 28 -7 32 -32
32 -25 0 -29 4 -32 33 -3 28 -7 32 -35 35 -29 3 -33 7 -33 32 0 25 -4 29 -32
32 -29 3 -33 7 -36 36 -3 28 -7 32 -32 32 -25 0 -29 4 -32 33 -3 28 -7 32 -35
35 -29 3 -33 7 -33 33 0 25 -4 29 -29 29 -26 0 -30 4 -33 33 -3 28 -7 32 -35
35 -28 3 -32 7 -35 35 -3 28 -7 32 -35 35 -29 3 -33 7 -33 33 0 25 -4 29 -29
29 -26 0 -30 4 -33 33 -3 28 -7 32 -35 35 -28 3 -32 7 -35 35 -3 28 -7 32 -35
35 -29 3 -33 7 -33 33 0 26 -3 29 -30 29 -28 0 -30 3 -30 35 0 33 -2 35 -35
35 -33 0 -35 2 -35 35 0 33 -2 35 -35 35 -32 0 -35 2 -35 30 0 27 -3 30 -30
30 -28 0 -30 3 -30 35 0 33 -2 35 -35 35 -33 0 -35 2 -35 35 0 32 -2 35 -30
35 -27 0 -30 3 -30 30 0 28 -3 30 -35 30 -33 0 -35 2 -35 35 0 33 -2 35 -35
35 -33 0 -35 2 -35 35 0 32 -2 35 -30 35 -27 0 -30 3 -30 30 0 28 -3 30 -35
30 -33 0 -35 2 -35 35 0 33 -2 35 -35 35 -32 0 -35 2 -35 30 0 27 -3 30 -30
30 -28 0 -30 3 -30 35 0 33 -2 35 -35 35 -33 0 -35 2 -35 35 0 33 -2 35 -35
35 -33 0 -35 2 -35 35 0 32 -2 35 -30 35 -27 0 -30 3 -30 30 0 28 -3 30 -35
30 -33 0 -35 2 -35 35 0 32 -2 35 -30 35 -27 0 -30 3 -30 30 0 28 -3 30 -35
30 -33 0 -35 2 -35 35 0 33 -2 35 -35 35 -33 0 -35 2 -35 35 0 32 -3 35 -29
35 -28 0 -29 2 -36 59 -7 58 -8 60 -38 63 -28 3 -32 7 -35 36 -3 28 -7 32 -33
32 -27 0 -29 3 -29 35 0 33 -2 35 -35 35 -32 0 -35 2 -35 29 0 26 -4 30 -32
33 -29 3 -33 7 -36 36 -3 28 -7 32 -33 32 -27 0 -29 3 -29 35 0 33 -2 35 -35
35 -32 0 -35 2 -35 29 0 26 -4 30 -32 33 -29 3 -33 7 -36 36 -3 28 -7 32 -33
32 -27 0 -29 3 -29 35 l0 35 -64 0 -64 0 -7 65 c-6 64 -7 65 -36 65 -27 0 -29
3 -29 35 0 33 -2 35 -35 35 -32 0 -35 2 -35 30 0 27 -3 30 -30 30 -28 0 -30 3
-30 35 0 33 -2 35 -35 35 -33 0 -35 2 -35 35 l0 35 -65 0 -65 0 0 35 c0 33 -2
35 -35 35 -32 0 -35 2 -35 30 l0 30 -200 0 -200 0 0 -29z m730 -1801 c0 -28 3
-30 35 -30 32 0 35 -2 35 -29 0 -26 4 -30 33 -33 28 -3 32 -7 35 -35 3 -28 7
-32 35 -35 28 -3 32 -7 35 -35 3 -29 7 -33 33 -33 25 0 29 -4 29 -29 0 -26 4
-30 33 -33 28 -3 32 -7 35 -35 3 -28 7 -32 35 -35 28 -3 32 -7 35 -35 3 -29 7
-33 33 -33 25 0 29 -4 29 -29 0 -26 4 -30 33 -33 28 -3 32 -7 35 -35 3 -29 7
-33 32 -33 25 0 29 -4 32 -32 3 -29 7 -33 36 -36 28 -3 32 -7 32 -32 0 -25 4
-29 33 -32 28 -3 32 -7 35 -35 3 -29 7 -33 32 -33 25 0 29 -4 32 -32 3 -29 7
-33 36 -36 28 -3 32 -7 32 -32 0 -25 4 -29 33 -32 28 -3 32 -7 35 -35 3 -29 7
-33 33 -33 27 0 29 -3 29 -35 0 -33 2 -35 35 -35 32 0 35 -2 35 -29 0 -26 4
-30 33 -33 28 -3 32 -7 35 -35 3 -29 7 -33 33 -33 27 0 29 -3 29 -35 0 -33 2
-35 35 -35 32 0 35 -2 35 -29 0 -26 4 -30 33 -33 28 -3 32 -7 35 -35 3 -29 7
-33 33 -33 27 0 29 -3 29 -35 0 -33 2 -35 35 -35 32 0 35 -2 35 -30 0 -27 3
-30 30 -30 28 0 30 -3 30 -35 0 -33 2 -35 35 -35 33 0 35 -2 35 -35 0 -32 2
-35 30 -35 27 0 30 -3 30 -30 0 -28 3 -30 35 -30 33 0 35 -2 35 -35 0 -33 2
-35 35 -35 33 0 35 -2 35 -35 0 -33 2 -35 35 -35 32 0 35 -2 35 -30 0 -27 3
-30 30 -30 28 0 30 -3 30 -35 0 -33 2 -35 35 -35 33 0 35 -2 35 -35 0 -32 2
-35 30 -35 27 0 30 -3 30 -30 0 -28 3 -30 35 -30 33 0 35 -2 35 -35 0 -33 2
-35 35 -35 33 0 35 -2 35 -35 0 -32 2 -35 30 -35 27 0 30 -3 30 -30 0 -28 3
-30 35 -30 33 0 35 -2 35 -35 0 -33 2 -35 35 -35 33 0 35 -2 35 -35 0 -32 2
-35 30 -35 27 0 30 -3 30 -30 0 -28 3 -30 35 -30 33 0 35 -2 35 -35 0 -32 2
-35 29 -35 26 0 30 -4 33 -32 3 -29 7 -33 36 -36 28 -3 32 -7 32 -33 0 -27 3
-29 35 -29 33 0 35 -2 35 -35 0 -32 2 -35 29 -35 26 0 30 -4 33 -32 3 -29 7
-33 36 -36 28 -3 32 -7 32 -33 0 -27 3 -29 35 -29 33 0 35 -2 35 -35 0 -32 2
-35 29 -35 26 0 30 -4 33 -32 3 -29 7 -33 36 -36 28 -3 32 -7 32 -33 0 -27 3
-29 35 -29 33 0 35 -2 35 -35 0 -32 2 -35 30 -35 27 0 30 -3 30 -30 0 -28 3
-30 35 -30 33 0 35 -2 35 -35 0 -33 2 -35 35 -35 33 0 35 -2 35 -35 0 -32 3
-35 29 -35 28 0 29 -2 36 -59 7 -58 8 -60 38 -63 28 -3 32 -7 35 -35 3 -29 7
-33 33 -33 27 0 29 -3 29 -35 0 -33 2 -35 35 -35 32 0 35 -2 35 -29 0 -26 4
-30 33 -33 28 -3 32 -7 35 -35 3 -29 7 -33 33 -33 27 0 29 -3 29 -35 0 -33 2
-35 35 -35 32 0 35 -2 35 -29 0 -26 4 -30 33 -33 28 -3 32 -7 35 -35 3 -29 7
-33 33 -33 25 0 29 -4 29 -29 0 -26 4 -30 33 -33 28 -3 32 -7 35 -35 3 -29 7
-33 33 -33 27 0 29 -3 29 -35 0 -33 2 -35 35 -35 33 0 35 -2 35 -35 0 -33 2
-35 35 -35 32 0 35 -2 35 -30 0 -27 3 -30 30 -30 28 0 30 -3 30 -35 0 -33 2
-35 35 -35 33 0 35 -2 35 -35 0 -32 2 -35 30 -35 27 0 30 -3 30 -30 0 -28 3
-30 35 -30 33 0 35 -2 35 -35 0 -33 2 -35 35 -35 33 0 35 -2 35 -35 0 -32 2
-35 30 -35 27 0 30 -3 30 -30 0 -28 3 -30 35 -30 33 0 35 -2 35 -35 0 -33 2
-35 35 -35 33 0 35 -2 35 -35 0 -32 2 -35 30 -35 27 0 30 -3 30 -30 0 -28 3
-30 35 -30 33 0 35 -2 35 -35 0 -33 2 -35 35 -35 32 0 35 -2 35 -30 0 -27 3
-30 30 -30 28 0 30 -3 30 -35 0 -33 2 -35 35 -35 33 0 35 -2 35 -35 0 -33 2
-35 35 -35 32 0 35 -2 35 -30 0 -27 3 -30 30 -30 28 0 30 -3 30 -35 0 -33 2
-35 35 -35 33 0 35 -2 35 -35 0 -33 2 -35 35 -35 32 0 35 -2 35 -30 0 -27 3
-30 30 -30 28 0 30 -3 30 -35 0 -33 2 -35 35 -35 33 0 35 -2 35 -35 0 -32 2
-35 30 -35 27 0 30 -3 30 -30 0 -28 3 -30 35 -30 33 0 35 -2 35 -35 0 -33 2
-35 35 -35 33 0 35 -2 35 -35 0 -32 2 -35 30 -35 27 0 30 -3 30 -30 0 -28 3
-30 35 -30 33 0 35 -2 35 -35 0 -33 2 -35 35 -35 33 0 35 -2 35 -35 0 -32 2
-35 30 -35 27 0 30 -3 30 -30 0 -28 3 -30 35 -30 33 0 35 -2 35 -35 0 -33 2
-35 35 -35 33 0 35 -2 35 -35 0 -32 2 -35 30 -35 27 0 30 -3 30 -30 0 -28 3
-30 35 -30 33 0 35 -2 35 -35 0 -32 2 -35 29 -35 26 0 30 -4 33 -32 3 -29 7
-33 36 -36 28 -3 32 -7 32 -33 0 -27 3 -29 35 -29 33 0 35 -2 35 -35 0 -32 2
-35 30 -35 27 0 30 -3 30 -30 0 -28 3 -30 35 -30 33 0 35 -2 35 -35 0 -33 2
-35 35 -35 33 0 35 -2 35 -35 0 -32 2 -35 30 -35 28 0 30 -3 30 -35 l0 -35
-2490 0 -2490 0 0 -30 c0 -28 -3 -30 -35 -30 -32 0 -35 2 -35 30 0 27 -3 30
-30 30 -27 0 -30 -3 -30 -30 l0 -30 -735 0 -735 0 0 30 c0 26 -4 30 -28 30
l-29 0 -6 1202 c-4 661 -7 1918 -7 2795 l0 1593 -30 0 -30 0 0 595 0 595 30 0
c27 0 30 -3 30 -30z m-1060 -8377 c0 -313 3 -700 7 -860 l6 -293 22 0 23 0 7
-945 c4 -520 5 -1523 1 -2228 -3 -705 -6 -1447 -6 -1649 l0 -368 -30 0 c-28 0
-30 3 -30 35 0 32 -2 35 -30 35 -27 0 -30 3 -30 30 0 28 -3 30 -35 30 -33 0
-35 2 -35 35 0 33 -2 35 -35 35 -33 0 -35 2 -35 35 0 32 -2 35 -30 35 -27 0
-30 3 -30 30 0 28 -3 30 -35 30 -33 0 -35 2 -35 35 0 32 -2 35 -29 35 -26 0
-30 4 -33 33 -3 28 -7 32 -35 35 -29 3 -33 7 -33 33 0 27 -3 29 -35 29 -33 0
-35 2 -35 35 0 32 -2 35 -29 35 -26 0 -30 4 -33 33 -3 28 -7 32 -35 35 -29 3
-33 7 -33 33 0 27 -3 29 -35 29 -33 0 -35 2 -35 35 0 32 -2 35 -30 35 -27 0
-30 3 -30 30 0 28 -3 30 -35 30 -33 0 -35 2 -35 35 0 33 -2 35 -35 35 -33 0
-35 2 -35 35 0 32 -2 35 -30 35 -27 0 -30 3 -30 30 0 28 -3 30 -35 30 -33 0
-35 2 -35 35 0 33 -2 35 -35 35 -33 0 -35 2 -35 35 0 32 -2 35 -30 35 -27 0
-30 3 -30 30 0 28 -3 30 -35 30 -33 0 -35 2 -35 35 0 33 -2 35 -35 35 -33 0
-35 2 -35 35 0 32 -2 35 -30 35 -27 0 -30 3 -30 30 0 28 -3 30 -35 30 -33 0
-35 2 -35 35 0 33 -2 35 -35 35 -32 0 -35 2 -35 30 0 27 -3 30 -30 30 -28 0
-30 3 -30 35 0 33 -2 35 -35 35 -33 0 -35 2 -35 35 0 33 -2 35 -35 35 -32 0
-35 2 -35 30 0 27 -3 30 -30 30 -28 0 -30 3 -30 35 0 33 -2 35 -35 35 -33 0
-35 2 -35 35 0 32 -2 35 -30 35 -27 0 -30 3 -30 30 0 28 -3 30 -35 30 -33 0
-35 2 -35 35 0 33 -2 35 -35 35 -33 0 -35 2 -35 35 0 33 -2 35 -35 35 -32 0
-35 2 -35 30 0 27 -3 30 -30 30 -28 0 -30 3 -30 35 0 33 -2 35 -35 35 -32 0
-35 2 -35 29 0 26 -4 30 -32 33 -29 3 -33 7 -36 36 -3 28 -7 32 -33 32 -27 0
-29 3 -29 35 0 33 -2 35 -35 35 -32 0 -35 2 -35 30 0 27 -3 30 -30 30 -28 0
-30 3 -30 35 0 33 -2 35 -35 35 -33 0 -35 2 -35 35 0 33 -2 35 -35 35 -32 0
-35 2 -35 30 0 27 -3 30 -30 30 -28 0 -30 3 -30 35 0 33 -2 35 -35 35 -33 0
-35 2 -35 35 0 33 -2 35 -35 35 -32 0 -35 2 -35 30 0 27 -3 30 -30 30 -28 0
-30 3 -30 35 0 33 -2 35 -35 35 -33 0 -35 2 -35 35 0 33 -2 35 -35 35 -32 0
-35 2 -35 30 0 27 -3 30 -30 30 -28 0 -30 3 -30 35 0 33 -2 35 -35 35 -33 0
-35 2 -35 35 0 32 -2 35 -30 35 -27 0 -30 3 -30 30 0 28 -3 30 -35 30 -33 0
-35 2 -35 35 0 33 -2 35 -35 35 -33 0 -35 2 -35 35 0 32 -2 35 -30 35 -27 0
-30 3 -30 30 0 28 -3 30 -35 30 -33 0 -35 2 -35 35 0 33 -2 35 -35 35 -33 0
-35 2 -35 35 0 32 -2 35 -30 35 -27 0 -30 3 -30 30 0 28 -3 30 -35 30 -33 0
-35 2 -35 35 0 33 -2 35 -35 35 -33 0 -35 2 -35 35 0 32 -2 35 -30 35 -27 0
-30 3 -30 30 0 28 -3 30 -35 30 -33 0 -35 2 -35 35 0 32 -2 35 -29 35 -26 0
-30 4 -33 33 -3 28 -7 32 -35 35 -29 3 -33 7 -33 33 0 27 -3 29 -35 29 -33 0
-35 2 -35 35 0 32 -2 35 -29 35 -26 0 -30 4 -33 33 -3 28 -7 32 -35 35 -29 3
-33 7 -33 33 0 27 -3 29 -35 29 -33 0 -35 2 -35 35 0 32 -2 35 -30 35 -27 0
-30 3 -30 30 0 28 -3 30 -35 30 -33 0 -35 2 -35 35 0 33 -2 35 -35 35 -33 0
-35 2 -35 35 0 32 -2 35 -30 35 -27 0 -30 3 -30 30 0 28 -3 30 -35 30 -33 0
-35 2 -35 35 0 33 -2 35 -35 35 -33 0 -35 2 -35 35 0 32 -2 35 -30 35 -27 0
-30 3 -30 30 0 28 -3 30 -35 30 -33 0 -35 2 -35 35 0 33 -2 35 -35 35 -33 0
-35 2 -35 35 0 32 -2 35 -30 35 -27 0 -30 3 -30 30 0 28 -3 30 -35 30 -33 0
-35 2 -35 35 0 32 -2 35 -29 35 -26 0 -30 4 -33 33 -3 28 -7 32 -35 35 -29 3
-33 7 -33 33 0 27 -3 29 -35 29 -33 0 -35 2 -35 35 0 32 -2 35 -29 35 -26 0
-30 4 -33 33 -3 28 -7 32 -35 35 -29 3 -33 7 -33 33 0 27 -3 29 -35 29 -33 0
-35 2 -35 35 0 32 -2 35 -29 35 -26 0 -30 4 -33 33 -3 28 -7 32 -35 35 -29 3
-33 7 -33 33 0 27 -3 29 -35 29 l-35 0 0 64 0 65 -32 3 c-29 3 -33 7 -36 36
-3 28 -7 32 -33 32 -25 0 -29 4 -29 29 0 26 -4 30 -32 33 -29 3 -33 7 -36 35
-3 28 -7 32 -35 35 -28 3 -32 7 -35 36 -3 28 -7 32 -33 32 -25 0 -29 4 -29 29
0 26 -4 30 -32 33 -29 3 -33 7 -36 36 -3 28 -7 32 -32 32 -25 0 -29 4 -32 33
-3 28 -7 32 -35 35 -29 3 -33 7 -33 32 0 25 -4 29 -32 32 -29 3 -33 7 -36 36
-3 28 -7 32 -32 32 -25 0 -29 4 -32 33 -3 28 -7 32 -35 35 -29 3 -33 7 -33 32
0 25 -4 29 -32 32 -29 3 -33 7 -36 36 -3 28 -7 32 -33 32 -26 0 -29 3 -29 30
0 28 -3 30 -35 30 -33 0 -35 2 -35 34 0 32 -3 35 -32 38 -29 3 -33 7 -36 36
-3 28 -7 32 -33 32 -26 0 -29 3 -29 30 l0 30 463 2 462 3 3 33 3 32 2890 0
2889 0 0 -567z"/>
</g>
</svg>
